HIERARCHY
ROOT Hips
{
	OFFSET 0.00000 0.00000 0.00000
	CHANNELS 6 Xposition Yposition Zposition Zrotation Yrotation Xrotation 
	JOINT LHipJoint
	{
		OFFSET 0 0 0
		CHANNELS 3 Zrotation Yrotation Xrotation
		JOINT LeftHip
		{
			OFFSET 1.56857 -1.73443 1.15205
			CHANNELS 3 Zrotation Yrotation Xrotation
			JOINT LeftKnee
			{
				OFFSET 2.39362 -6.57643 0.00000
				CHANNELS 3 Zrotation Yrotation Xrotation
				JOINT LeftAnkle
				{
					OFFSET 2.50952 -6.89485 0.00000
					CHANNELS 3 Zrotation Yrotation Xrotation
					JOINT LeftToe
					{
						OFFSET 0.17171 -0.47178 1.88682
						CHANNELS 3 Zrotation Yrotation Xrotation
						End Site
						{
							OFFSET 0.00000 -0.00000 0.98146
						}
					}
				}
			}
		}
	}
	JOINT RHipJoint
	{
		OFFSET 0 0 0
		CHANNELS 3 Zrotation Yrotation Xrotation
		JOINT RightHip
		{
			OFFSET -1.28153 -1.73443 1.15205
			CHANNELS 3 Zrotation Yrotation Xrotation
			JOINT RightKnee
			{
				OFFSET -2.26861 -6.23296 0.00000
				CHANNELS 3 Zrotation Yrotation Xrotation
				JOINT RightAnkle
				{
					OFFSET -2.54143 -6.98254 0.00000
					CHANNELS 3 Zrotation Yrotation Xrotation
					JOINT RightToe
					{
						OFFSET -0.23309 -0.64041 1.93119
						CHANNELS 3 Zrotation Yrotation Xrotation
						End Site
						{
							OFFSET -0.00000 -0.00000 1.02013
						}
					}
				}
			}
		}
	}
	JOINT lowerback
	{
		OFFSET 0 0 0
		CHANNELS 3 Zrotation Yrotation Xrotation
		JOINT Chest
		{
			OFFSET -0.07096 2.10460 -0.27878
			CHANNELS 3 Zrotation Yrotation Xrotation
			JOINT Chest2
			{
				OFFSET -0.00826 2.13662 -0.08279
				CHANNELS 3 Zrotation Yrotation Xrotation
				JOINT lowerneck
				{
					OFFSET 0 0 0
					CHANNELS 3 Zrotation Yrotation Xrotation
					JOINT Neck
					{
						OFFSET 0.03239 1.77799 0.24435
						CHANNELS 3 Zrotation Yrotation Xrotation
						JOINT Head
						{
							OFFSET 0.01026 1.74194 -0.49664
							CHANNELS 3 Zrotation Yrotation Xrotation
							End Site
							{
								OFFSET 0.00170 1.83057 -0.19653
							}
						}
					}
				}
				JOINT LeftCollar
				{
					OFFSET 0 0 0
					CHANNELS 3 Zrotation Yrotation Xrotation
					JOINT LeftShoulder
					{
						OFFSET 3.19178 1.35907 -0.31412
CHANNELS 3 Zrotation Xrotation Yrotation
						JOINT LeftElbow
						{
OFFSET 0 -4.852470 -0.000000
CHANNELS 3 Zrotation Xrotation Yrotation
							JOINT LeftWrist
							{
OFFSET 0 -3.555840 0.000000
CHANNELS 3 Zrotation Xrotation Yrotation
								JOINT lhand
								{
									OFFSET 0 0 0
CHANNELS 3 Zrotation Xrotation Yrotation
									JOINT LFingers
									{
OFFSET 0 -0.693200 0.000000
CHANNELS 3 Zrotation Xrotation Yrotation
										End Site
										{
OFFSET 0 -0.558880 0.000000
										}
									}
								}
								JOINT LThumb
								{
OFFSET 0 0.000000 0.000000
CHANNELS 3 Zrotation Xrotation Yrotation
									End Site
									{
OFFSET 0 -0.567410 0.567410
									}
								}
							}
						}
					}
				}
				JOINT RightCollar
				{
					OFFSET 0 0 0
					CHANNELS 3 Zrotation Yrotation Xrotation
					JOINT RightShoulder
					{
						OFFSET -3.28999 1.24191 -0.26899
CHANNELS 3 Zrotation Xrotation Yrotation
						JOINT RightElbow
						{
OFFSET 0 -4.644620 0.000000
CHANNELS 3 Zrotation Xrotation Yrotation
							JOINT RightWrist
							{
OFFSET 0 -3.407030 0.000000
CHANNELS 3 Zrotation Xrotation Yrotation
								JOINT rhand
								{
									OFFSET 0 0 0
CHANNELS 3 Zrotation Xrotation Yrotation
									JOINT RFingers
									{
OFFSET 0 -0.619580 0.000000
CHANNELS 3 Zrotation Xrotation Yrotation
										End Site
										{
OFFSET 0 -0.499520 0.000000
										}
									}
								}
								JOINT RThumb
								{
OFFSET 0 0.000000 0.000000
CHANNELS 3 Zrotation Xrotation Yrotation
									End Site
									{
OFFSET 0 -0.507150 0.507150
									}
								}
							}
						}
					}
				}
			}
		}
	}
}
MOTION
Frames: 8
Frame Time: 0.008333333333333333
6.336500 17.296000 0.706800 45.797100 85.297200 43.838100 0.000000 0.000000 0.000000 -13.239400 2.278500 16.301600 0.095900 -1.996700 -5.496400 0.021400 11.727800 -16.979600 0.007000 -0.538400 -1.479500 0.000000 0.000000 0.000000 1.339800 -9.120600 6.588200 -0.003500 -0.382900 1.052100 -0.218400 -0.021900 -8.835900 -0.019300 0.897000 -2.465400 -5.479500 2.934700 3.956500 -1.410700 3.745200 1.729400 1.435800 1.876800 -0.686300 1.371400 1.679600 -16.752500 -2.912800 5.084900 38.514300 -0.413100 2.426700 16.923800 -0.000000 0.000000 0.000000 5.984600 -0.935600 -45.127500 12.429600 -20.445700 2.250100 17.466000 6.220500 23.896300 0.000000 0.000000 0.000000 -7.125000 0.000000 0.000000 -7.273400 5.235900 -6.634100 -0.000000 0.000000 0.000000 -0.157500 4.983400 29.853600 -15.821700 -25.278300 -3.569500 -14.721600 12.527000 28.792600 0.000000 0.000000 0.000000 7.125000 0.000000 -0.000000 18.114000 58.658800 -6.178100
6.337735 17.296350 0.706467 45.494856 85.252744 43.518080 0.000000 0.000000 0.000000 -13.270936 2.306110 16.330101 0.095833 -1.996480 -5.495958 0.017167 11.784590 -17.001787 0.010958 -0.671623 -1.845583 0.000000 0.000000 0.000000 1.320785 -9.137223 6.547353 -0.003983 -0.405735 1.114837 -0.218698 0.224871 -8.754774 -0.017549 0.856139 -2.353006 -5.477914 2.978599 4.016541 -1.428428 3.796702 1.681264 1.408769 1.905143 -0.771535 1.309892 1.645600 -16.668064 -2.800117 5.012411 38.517643 -0.366753 2.407095 16.894494 0.000000 0.000000 0.000000 6.002191 -0.883751 -45.084532 12.409721 -20.416264 2.243152 17.391340 6.396206 23.880300 0.000000 0.000000 0.000000 -7.125000 0.000000 0.000000 -7.318298 5.263221 -6.671978 0.000000 0.000000 0.000000 -0.119978 5.091324 29.707871 -15.848580 -25.314975 -3.580963 -14.357113 12.620977 28.860684 0.000000 0.000000 0.000000 7.125000 0.000000 0.000000 18.541849 58.642271 -6.323182
6.335128 17.296333 0.705564 45.509973 85.257618 43.534339 0.000000 0.000000 0.000000 -13.266333 2.289530 16.309325 0.094564 -1.983379 -5.459709 0.035398 11.685313 -17.109246 0.010292 -0.653032 -1.794630 0.000000 0.000000 0.000000 1.286845 -9.231435 6.518632 -0.003867 -0.401048 1.101974 -0.216703 0.191546 -8.726310 -0.032002 1.154494 -3.174041 -5.500832 2.964357 4.017042 -1.398264 3.778083 1.705003 1.454179 1.894805 -0.749530 1.216159 1.647108 -16.779082 -2.747436 5.028367 38.563191 -0.321736 2.404171 16.942714 0.000000 0.000000 0.000000 5.978284 -0.895940 -45.062136 12.463087 -20.495447 2.261829 17.466286 6.285308 23.883252 0.000000 0.000000 0.000000 -7.125000 0.000000 0.000000 -7.272239 5.249209 -6.631250 0.000000 0.000000 0.000000 -0.173962 5.052288 29.831767 -15.807779 -25.259289 -3.563534 -14.561921 12.480828 28.677597 0.000000 0.000000 0.000000 7.125000 0.000000 0.000000 18.203468 58.513915 -6.146441
6.337006 17.295900 0.703903 45.904387 85.267340 43.920169 0.000000 0.000000 0.000000 -13.269172 2.350113 16.276498 0.093046 -1.967259 -5.415137 0.051115 11.590106 -17.187756 0.005331 -0.459291 -1.261939 0.000000 0.000000 0.000000 1.275396 -9.153944 6.595036 -0.003749 -0.397030 1.091007 -0.219808 0.325809 -8.744617 -0.009905 0.616835 -1.695087 -5.456685 2.962791 3.976515 -1.430944 3.782568 1.735263 1.399329 1.895832 -0.691057 1.345807 1.672819 -16.709862 -2.842834 5.047904 38.468052 -0.385445 2.418259 16.882595 0.000000 0.000000 0.000000 6.008715 -0.983760 -45.098955 12.408494 -20.414494 2.242778 17.419793 6.247629 23.925486 0.000000 0.000000 0.000000 -7.125000 0.000000 0.000000 -7.304109 5.213007 -6.665820 0.000000 0.000000 0.000000 -0.141566 4.979476 29.795080 -15.774172 -25.213517 -3.549202 -14.532972 12.471241 28.580742 0.000000 0.000000 0.000000 7.125000 0.000000 0.000000 18.168324 58.415564 -6.090689
6.336403 17.296502 0.705959 45.569281 85.275303 43.571747 0.000000 0.000000 0.000000 -13.270392 2.214425 16.337842 0.092703 -1.963901 -5.405927 0.047038 11.652731 -17.218486 0.001439 -0.242700 -0.666848 0.000000 0.000000 0.000000 1.394393 -8.846382 6.722006 -0.003234 -0.367737 1.010344 -0.222897 0.130482 -8.871920 -0.001868 0.279021 -0.766584 -5.449834 2.975839 3.967604 -1.429361 3.801510 1.746566 1.397043 1.904842 -0.675356 1.456482 1.693748 -16.634312 -2.932682 5.068929 38.392356 -0.442711 2.431663 16.830892 0.000000 0.000000 0.000000 6.070714 -0.984226 -45.163578 12.418002 -20.428477 2.246099 17.280555 6.265619 23.884843 0.000000 0.000000 0.000000 -7.125000 0.000000 0.000000 -7.387158 5.274977 -6.734147 0.000000 0.000000 0.000000 -0.067637 5.026566 29.517065 -15.874261 -25.349865 -3.591983 -14.020929 12.783635 28.919130 0.000000 0.000000 0.000000 7.125000 0.000000 0.000000 18.932875 58.622836 -6.453647
6.336992 17.297052 0.704122 44.939430 85.297385 42.973471 0.000000 0.000000 0.000000 -13.188373 2.278881 16.290855 0.093922 -1.976746 -5.441395 0.042801 11.632554 -17.135469 0.001061 -0.210645 -0.578866 0.000000 0.000000 0.000000 1.433134 -8.925527 6.623530 -0.003652 -0.389291 1.069596 -0.224208 0.114395 -8.902865 -0.005538 0.474736 -1.304414 -5.398980 2.965035 3.966555 -1.408817 3.787181 1.721879 1.389985 1.898282 -0.697631 1.505681 1.729057 -16.646371 -2.968074 5.123286 38.408684 -0.456449 2.456212 16.847827 0.000000 0.000000 0.000000 6.111299 -0.869873 -45.336068 12.512843 -20.569200 2.279302 17.359654 6.006444 23.808423 0.000000 0.000000 0.000000 -7.125000 0.000000 0.000000 -7.332736 5.341194 -6.674318 0.000000 0.000000 0.000000 -0.132700 5.019861 29.791403 -15.814226 -25.268089 -3.566286 -14.592173 12.549833 28.614460 0.000000 0.000000 0.000000 7.125000 0.000000 0.000000 18.129180 58.460680 -6.096782
6.335902 17.297498 0.704497 46.313397 85.219051 44.303944 0.000000 0.000000 0.000000 -13.332334 2.320883 16.327175 0.095296 -1.991157 -5.481281 0.022420 11.732546 -17.000103 0.003234 -0.364470 -1.001514 0.000000 0.000000 0.000000 1.257204 -8.953541 6.660249 -0.003698 -0.393125 1.080095 -0.225164 0.117756 -8.921418 -0.009892 0.642445 -1.765497 -5.580146 2.946830 4.041630 -1.400237 3.753418 1.755082 1.497656 1.881209 -0.714613 1.391432 1.767637 -16.667363 -2.942980 5.210900 38.391244 -0.408175 2.477750 16.842538 0.000000 0.000000 0.000000 5.900928 -1.040915 -44.926775 12.340462 -20.313190 2.219091 17.445003 6.249438 23.999290 0.000000 0.000000 0.000000 -7.125000 0.000000 0.000000 -7.293903 5.134156 -6.667347 0.000000 0.000000 0.000000 -0.200261 4.940420 29.849799 -15.785697 -25.229169 -3.554084 -14.659404 12.483689 28.723873 0.000000 0.000000 0.000000 7.125000 0.000000 0.000000 18.132535 58.579576 -6.149961
6.337196 17.295867 0.703778 47.021709 85.158799 44.986927 0.000000 0.000000 0.000000 -13.415453 2.400931 16.298836 0.093114 -1.968311 -5.418202 0.017706 11.693355 -16.882662 0.009070 -0.615411 -1.691214 0.000000 0.000000 0.000000 1.092447 -9.120256 6.663836 -0.003669 -0.391282 1.075091 -0.219888 0.245139 -8.771823 -0.012794 0.729540 -2.004981 -5.645674 2.963130 4.052716 -1.442635 3.772630 1.754515 1.488716 1.891321 -0.723772 1.382616 1.748650 -16.643441 -2.898521 5.175984 38.433751 -0.393300 2.470282 16.855687 0.000000 0.000000 0.000000 5.977310 -0.953143 -44.992501 12.416198 -20.425850 2.245413 17.234702 6.383070 23.791727 0.000000 0.000000 0.000000 -7.125000 0.000000 0.000000 -7.408821 5.376424 -6.739794 0.000000 0.000000 0.000000 -0.120807 5.026542 29.729961 -15.813653 -25.267339 -3.566039 -14.720576 12.583737 28.766993 0.000000 0.000000 0.000000 7.125000 0.000000 0.000000 18.097833 58.634209 -6.161657
